# xmcd
#
# Track frame offsets: 
#        150
#        15334
#        48649
#        70046
#        88834
#        119434
#        142714
#        197419
#        219619
#        244929
#        269828
#        307970
#        339407
#
# Disc length: 4814 seconds
#
# Revision: 1
# Processed by: cddbd v1.4PL0 Copyright (c) Steve Scherf et al.
# Submitted via: ExactAudioCopy v0.95a3
#
DISCID=b912cc0d
DTITLE=Buddy Guy - Sweet Tea
DYEAR=2001
DGENRE=
TTITLE0=Done Got Old
TTITLE1=Baby Please Don't Leave Me
TTITLE2=Loot What All You Got
TTITLE3=Stay All Night
TTITLE4=Tramp
TTITLE5=She's Got The Devil In Her
TTITLE6=I Gotta Try You Girl
TTITLE7=Who's Been Foolin' You
TTITLE8=It's A Jungle Out There
TTITLE9=She's Nineteen Years
TTITLE10=Five Long Years
TTITLE11=Rememberin' Stevie
TTITLE12=Black Night
EXTD=
EXTT0=
EXTT1=
EXTT2=
EXTT3=
EXTT4=
EXTT5=
EXTT6=
EXTT7=
EXTT8=
EXTT9=
EXTT10=
EXTT11=
EXTT12=
PLAYORDER=
